<svg id="Layer_1" data-name="Layer 1" xmlns="http://www.w3.org/2000/svg" viewBox="0 0 3000 3000"><defs><style>.cls-1{stroke:#231f20;}.cls-1,.cls-4{stroke-miterlimit:10;}.cls-2,.cls-4{fill:#fff;}.cls-3{font-size:500px;fill:#dd1230;letter-spacing:0.07em;}.cls-3,.cls-4{font-family:PilotCommandExpanded, Pilot Command Expanded;}.cls-4{font-size:98px;stroke:#fff;letter-spacing:0.07em;}</style></defs><rect class="cls-1" x="0.5" y="0.5" width="3000" height="3000"/><polygon class="cls-2" points="1496.52 446.08 1496.52 1030.52 1644.74 858.23 1644.74 618.37 1641.48 618.37 1644.74 614.58 1644.74 618.37 1985.8 618.37 1985.8 1116.7 1644.74 1513.15 1644.74 1219.94 1815.88 1021 1815.88 777.35 1644.74 976.3 1542.39 1095.26 1496.52 1148.59 1496.52 1929.08 2134.02 1188.05 2134.02 618.37 2134.43 618.37 2134.43 446.08 1496.52 446.08"/><polygon class="cls-2" points="1320.46 858.22 1320.46 618.37 1323.71 618.37 1320.46 614.59 1320.46 618.37 979.39 618.37 979.39 1116.7 1320.46 1513.15 1320.46 1219.93 1149.31 1020.99 1149.31 777.36 1320.46 976.3 1422.8 1095.26 1468.67 1148.58 1468.67 1929.08 831.17 1188.05 831.17 618.37 830.76 618.37 830.76 446.08 1468.67 446.08 1468.67 1030.52 1320.46 858.22"/><text class="cls-3" transform="translate(702.26 2369.94)">UGG</text><text class="cls-4" transform="translate(702.07 2514.87)">Uem Gamerz guild</text></svg>